<svg width="400" height="39" viewBox="0 0 400 39" fill="none" xmlns="http://www.w3.org/2000/svg">
<path d="M25.7699 10.7244H20.4574C20.3059 9.85322 20.0265 9.08144 19.6193 8.40909C19.2121 7.72727 18.7055 7.14962 18.0994 6.67614C17.4934 6.20265 16.8021 5.84754 16.0256 5.6108C15.2585 5.36458 14.4299 5.24148 13.5398 5.24148C11.9583 5.24148 10.5568 5.6392 9.33523 6.43466C8.11364 7.22064 7.1572 8.37595 6.46591 9.90057C5.77462 11.4157 5.42898 13.267 5.42898 15.4545C5.42898 17.6799 5.77462 19.5549 6.46591 21.0795C7.16667 22.5947 8.12311 23.7405 9.33523 24.517C10.5568 25.2841 11.9536 25.6676 13.5256 25.6676C14.3968 25.6676 15.2112 25.554 15.9688 25.3267C16.7358 25.09 17.4223 24.7443 18.0284 24.2898C18.6439 23.8352 19.16 23.2765 19.5767 22.6136C20.0028 21.9508 20.2964 21.1932 20.4574 20.3409L25.7699 20.3693C25.571 21.7519 25.1402 23.0492 24.4773 24.2614C23.8239 25.4735 22.9669 26.5436 21.9062 27.4716C20.8456 28.3902 19.6051 29.1098 18.1847 29.6307C16.7642 30.142 15.1875 30.3977 13.4545 30.3977C10.8977 30.3977 8.61553 29.8059 6.60795 28.6222C4.60038 27.4384 3.01894 25.7292 1.86364 23.4943C0.708333 21.2595 0.130682 18.5795 0.130682 15.4545C0.130682 12.3201 0.713068 9.64015 1.87784 7.41477C3.04261 5.17992 4.62879 3.47064 6.63636 2.28693C8.64394 1.10322 10.9167 0.511363 13.4545 0.511363C15.0739 0.511363 16.5795 0.738635 17.9716 1.19318C19.3636 1.64773 20.6042 2.31534 21.6932 3.19602C22.7822 4.06723 23.6771 5.13731 24.3778 6.40625C25.0881 7.66572 25.5521 9.10511 25.7699 10.7244ZM35.5107 17.2159V30H30.3686V0.90909H35.397V11.8892H35.6527C36.1641 10.6581 36.9548 9.6875 38.0249 8.97727C39.1044 8.25758 40.4775 7.89773 42.1442 7.89773C43.6593 7.89773 44.9804 8.21496 46.1072 8.84943C47.2341 9.4839 48.1054 10.4119 48.7209 11.6335C49.3459 12.8551 49.6584 14.3466 49.6584 16.108V30H44.5163V16.9034C44.5163 15.4356 44.1375 14.2945 43.38 13.4801C42.6319 12.6562 41.5807 12.2443 40.2266 12.2443C39.3175 12.2443 38.5031 12.4432 37.7834 12.8409C37.0732 13.2292 36.5144 13.7926 36.1072 14.5312C35.7095 15.2699 35.5107 16.1648 35.5107 17.2159ZM61.1783 30.4403C59.7957 30.4403 58.5504 30.1941 57.4425 29.7017C56.344 29.1998 55.4728 28.4612 54.8288 27.4858C54.1944 26.5104 53.8771 25.3078 53.8771 23.8778C53.8771 22.6468 54.1044 21.6288 54.5589 20.8239C55.0135 20.0189 55.6338 19.375 56.4197 18.892C57.2057 18.4091 58.0911 18.0445 59.076 17.7983C60.0703 17.5426 61.0978 17.358 62.1584 17.2443C63.4368 17.1117 64.4737 16.9934 65.2692 16.8892C66.0646 16.7756 66.6423 16.6051 67.0021 16.3778C67.3714 16.1411 67.5561 15.7765 67.5561 15.2841V15.1989C67.5561 14.1288 67.2389 13.3002 66.6044 12.7131C65.9699 12.1259 65.0561 11.8324 63.8629 11.8324C62.6035 11.8324 61.6044 12.107 60.8658 12.6562C60.1366 13.2055 59.6442 13.8542 59.3885 14.6023L54.5874 13.9205C54.9661 12.5947 55.5911 11.4867 56.4624 10.5966C57.3336 9.69697 58.3989 9.02462 59.6584 8.57955C60.9179 8.125 62.3099 7.89773 63.8345 7.89773C64.8857 7.89773 65.9321 8.02083 66.9737 8.26705C68.0154 8.51326 68.9671 8.92045 69.8288 9.48864C70.6906 10.0473 71.3819 10.8097 71.9027 11.7756C72.433 12.7415 72.6982 13.9489 72.6982 15.3977V30H67.755V27.0028H67.5845C67.272 27.6089 66.8317 28.1771 66.2635 28.7074C65.7048 29.2282 64.9993 29.6496 64.147 29.9716C63.3042 30.2841 62.3146 30.4403 61.1783 30.4403ZM62.5135 26.6619C63.5457 26.6619 64.4406 26.4583 65.1982 26.0511C65.9557 25.6345 66.5381 25.0852 66.9453 24.4034C67.362 23.7216 67.5703 22.9782 67.5703 22.1733V19.6023C67.4093 19.7348 67.1347 19.858 66.7464 19.9716C66.3677 20.0852 65.9415 20.1847 65.468 20.2699C64.9946 20.3551 64.5258 20.4309 64.0618 20.4972C63.5978 20.5634 63.1953 20.6203 62.8544 20.6676C62.0874 20.7718 61.4008 20.9422 60.7947 21.179C60.1887 21.4157 59.7105 21.7472 59.3601 22.1733C59.0097 22.59 58.8345 23.1297 58.8345 23.7926C58.8345 24.7396 59.1802 25.4545 59.8714 25.9375C60.5627 26.4205 61.4434 26.6619 62.5135 26.6619ZM83.0107 0.90909V30H77.8686V0.90909H83.0107ZM93.4403 0.90909V30H88.2983V0.90909H93.4403ZM108.387 30.4261C106.2 30.4261 104.31 29.9716 102.719 29.0625C101.138 28.1439 99.9212 26.8466 99.0689 25.1705C98.2166 23.4848 97.7905 21.5009 97.7905 19.2188C97.7905 16.9744 98.2166 15.0047 99.0689 13.3097C99.9306 11.6051 101.133 10.2794 102.677 9.33239C104.22 8.37595 106.034 7.89773 108.117 7.89773C109.462 7.89773 110.731 8.11553 111.924 8.55114C113.127 8.97727 114.187 9.64015 115.106 10.5398C116.034 11.4394 116.763 12.5852 117.293 13.9773C117.824 15.3598 118.089 17.0076 118.089 18.9205V20.4972H100.205V17.0312H113.16C113.15 16.0464 112.937 15.1705 112.521 14.4034C112.104 13.6269 111.522 13.0161 110.773 12.571C110.035 12.1259 109.173 11.9034 108.188 11.9034C107.137 11.9034 106.214 12.1591 105.418 12.6705C104.623 13.1723 104.003 13.8352 103.558 14.6591C103.122 15.4735 102.899 16.3684 102.89 17.3438V20.3693C102.89 21.6383 103.122 22.7273 103.586 23.6364C104.05 24.536 104.699 25.2273 105.532 25.7102C106.365 26.1837 107.341 26.4205 108.458 26.4205C109.206 26.4205 109.883 26.3163 110.489 26.108C111.095 25.8902 111.621 25.5729 112.066 25.1562C112.511 24.7396 112.847 24.2235 113.075 23.608L117.876 24.1477C117.573 25.4167 116.995 26.5246 116.143 27.4716C115.3 28.4091 114.22 29.1383 112.904 29.6591C111.588 30.1705 110.082 30.4261 108.387 30.4261ZM127.581 17.2159V30H122.439V8.18182H127.354V11.8892H127.609C128.111 10.6676 128.911 9.69697 130.01 8.97727C131.118 8.25758 132.486 7.89773 134.115 7.89773C135.621 7.89773 136.932 8.2197 138.05 8.86364C139.177 9.50758 140.048 10.4403 140.663 11.6619C141.288 12.8835 141.596 14.3655 141.587 16.108V30H136.445V16.9034C136.445 15.4451 136.066 14.304 135.308 13.4801C134.56 12.6562 133.523 12.2443 132.197 12.2443C131.298 12.2443 130.498 12.4432 129.797 12.8409C129.106 13.2292 128.561 13.7926 128.163 14.5312C127.775 15.2699 127.581 16.1648 127.581 17.2159ZM156.303 38.6364C154.456 38.6364 152.87 38.3854 151.544 37.8835C150.218 37.3911 149.153 36.7282 148.348 35.8949C147.543 35.0616 146.984 34.1383 146.672 33.125L151.303 32.0028C151.511 32.429 151.814 32.8504 152.212 33.267C152.609 33.6932 153.144 34.0436 153.817 34.3182C154.499 34.6023 155.356 34.7443 156.388 34.7443C157.846 34.7443 159.054 34.3892 160.01 33.679C160.966 32.9782 161.445 31.8229 161.445 30.2131V26.0795H161.189C160.924 26.6098 160.536 27.1544 160.024 27.7131C159.522 28.2718 158.855 28.7405 158.021 29.1193C157.197 29.4981 156.161 29.6875 154.911 29.6875C153.234 29.6875 151.714 29.2945 150.351 28.5085C148.997 27.7131 147.917 26.5294 147.112 24.9574C146.317 23.3759 145.919 21.3968 145.919 19.0199C145.919 16.6241 146.317 14.6023 147.112 12.9545C147.917 11.2973 149.001 10.0426 150.365 9.19034C151.729 8.3286 153.249 7.89773 154.925 7.89773C156.203 7.89773 157.254 8.11553 158.078 8.55114C158.911 8.97727 159.574 9.49337 160.067 10.0994C160.559 10.696 160.933 11.2595 161.189 11.7898H161.473V8.18182H166.544V30.3551C166.544 32.2206 166.099 33.7642 165.209 34.9858C164.319 36.2074 163.102 37.1212 161.558 37.7273C160.015 38.3333 158.263 38.6364 156.303 38.6364ZM156.345 25.6534C157.434 25.6534 158.362 25.3883 159.129 24.858C159.896 24.3277 160.479 23.5653 160.876 22.571C161.274 21.5767 161.473 20.3835 161.473 18.9915C161.473 17.6184 161.274 16.4157 160.876 15.3835C160.488 14.3513 159.911 13.5511 159.143 12.983C158.386 12.4053 157.453 12.1165 156.345 12.1165C155.199 12.1165 154.243 12.4148 153.476 13.0114C152.709 13.608 152.131 14.4271 151.743 15.4688C151.355 16.5009 151.161 17.6752 151.161 18.9915C151.161 20.3267 151.355 21.4962 151.743 22.5C152.141 23.4943 152.723 24.2708 153.49 24.8295C154.267 25.3788 155.218 25.6534 156.345 25.6534ZM181.473 30.4261C179.286 30.4261 177.396 29.9716 175.805 29.0625C174.224 28.1439 173.007 26.8466 172.155 25.1705C171.303 23.4848 170.876 21.5009 170.876 19.2188C170.876 16.9744 171.303 15.0047 172.155 13.3097C173.017 11.6051 174.219 10.2794 175.763 9.33239C177.306 8.37595 179.12 7.89773 181.203 7.89773C182.548 7.89773 183.817 8.11553 185.01 8.55114C186.213 8.97727 187.273 9.64015 188.192 10.5398C189.12 11.4394 189.849 12.5852 190.379 13.9773C190.91 15.3598 191.175 17.0076 191.175 18.9205V20.4972H173.291V17.0312H186.246C186.236 16.0464 186.023 15.1705 185.607 14.4034C185.19 13.6269 184.607 13.0161 183.859 12.571C183.121 12.1259 182.259 11.9034 181.274 11.9034C180.223 11.9034 179.3 12.1591 178.504 12.6705C177.709 13.1723 177.089 13.8352 176.643 14.6591C176.208 15.4735 175.985 16.3684 175.976 17.3438V20.3693C175.976 21.6383 176.208 22.7273 176.672 23.6364C177.136 24.536 177.785 25.2273 178.618 25.7102C179.451 26.1837 180.427 26.4205 181.544 26.4205C182.292 26.4205 182.969 26.3163 183.575 26.108C184.181 25.8902 184.707 25.5729 185.152 25.1562C185.597 24.7396 185.933 24.2235 186.161 23.608L190.962 24.1477C190.659 25.4167 190.081 26.5246 189.229 27.4716C188.386 28.4091 187.306 29.1383 185.99 29.6591C184.674 30.1705 183.168 30.4261 181.473 30.4261ZM230.575 10.7244H225.262C225.111 9.85322 224.831 9.08144 224.424 8.40909C224.017 7.72727 223.51 7.14962 222.904 6.67614C222.298 6.20265 221.607 5.84754 220.83 5.6108C220.063 5.36458 219.235 5.24148 218.344 5.24148C216.763 5.24148 215.362 5.6392 214.14 6.43466C212.918 7.22064 211.962 8.37595 211.271 9.90057C210.579 11.4157 210.234 13.267 210.234 15.4545C210.234 17.6799 210.579 19.5549 211.271 21.0795C211.971 22.5947 212.928 23.7405 214.14 24.517C215.362 25.2841 216.758 25.6676 218.33 25.6676C219.201 25.6676 220.016 25.554 220.773 25.3267C221.54 25.09 222.227 24.7443 222.833 24.2898C223.449 23.8352 223.965 23.2765 224.381 22.6136C224.808 21.9508 225.101 21.1932 225.262 20.3409L230.575 20.3693C230.376 21.7519 229.945 23.0492 229.282 24.2614C228.629 25.4735 227.772 26.5436 226.711 27.4716C225.65 28.3902 224.41 29.1098 222.989 29.6307C221.569 30.142 219.992 30.3977 218.259 30.3977C215.702 30.3977 213.42 29.8059 211.413 28.6222C209.405 27.4384 207.824 25.7292 206.668 23.4943C205.513 21.2595 204.935 18.5795 204.935 15.4545C204.935 12.3201 205.518 9.64015 206.683 7.41477C207.847 5.17992 209.433 3.47064 211.441 2.28693C213.449 1.10322 215.721 0.511363 218.259 0.511363C219.879 0.511363 221.384 0.738635 222.776 1.19318C224.168 1.64773 225.409 2.31534 226.498 3.19602C227.587 4.06723 228.482 5.13731 229.183 6.40625C229.893 7.66572 230.357 9.10511 230.575 10.7244ZM240.315 17.2159V30H235.173V0.90909H240.202V11.8892H240.457C240.969 10.6581 241.759 9.6875 242.83 8.97727C243.909 8.25758 245.282 7.89773 246.949 7.89773C248.464 7.89773 249.785 8.21496 250.912 8.84943C252.039 9.4839 252.91 10.4119 253.526 11.6335C254.151 12.8551 254.463 14.3466 254.463 16.108V30H249.321V16.9034C249.321 15.4356 248.942 14.2945 248.185 13.4801C247.437 12.6562 246.385 12.2443 245.031 12.2443C244.122 12.2443 243.308 12.4432 242.588 12.8409C241.878 13.2292 241.319 13.7926 240.912 14.5312C240.514 15.2699 240.315 16.1648 240.315 17.2159ZM265.983 30.4403C264.6 30.4403 263.355 30.1941 262.247 29.7017C261.149 29.1998 260.277 28.4612 259.634 27.4858C258.999 26.5104 258.682 25.3078 258.682 23.8778C258.682 22.6468 258.909 21.6288 259.364 20.8239C259.818 20.0189 260.438 19.375 261.224 18.892C262.01 18.4091 262.896 18.0445 263.881 17.7983C264.875 17.5426 265.902 17.358 266.963 17.2443C268.241 17.1117 269.278 16.9934 270.074 16.8892C270.869 16.7756 271.447 16.6051 271.807 16.3778C272.176 16.1411 272.361 15.7765 272.361 15.2841V15.1989C272.361 14.1288 272.044 13.3002 271.409 12.7131C270.775 12.1259 269.861 11.8324 268.668 11.8324C267.408 11.8324 266.409 12.107 265.67 12.6562C264.941 13.2055 264.449 13.8542 264.193 14.6023L259.392 13.9205C259.771 12.5947 260.396 11.4867 261.267 10.5966C262.138 9.69697 263.204 9.02462 264.463 8.57955C265.723 8.125 267.115 7.89773 268.639 7.89773C269.69 7.89773 270.737 8.02083 271.778 8.26705C272.82 8.51326 273.772 8.92045 274.634 9.48864C275.495 10.0473 276.187 10.8097 276.707 11.7756C277.238 12.7415 277.503 13.9489 277.503 15.3977V30H272.56V27.0028H272.389C272.077 27.6089 271.636 28.1771 271.068 28.7074C270.509 29.2282 269.804 29.6496 268.952 29.9716C268.109 30.2841 267.119 30.4403 265.983 30.4403ZM267.318 26.6619C268.35 26.6619 269.245 26.4583 270.003 26.0511C270.76 25.6345 271.343 25.0852 271.75 24.4034C272.167 23.7216 272.375 22.9782 272.375 22.1733V19.6023C272.214 19.7348 271.939 19.858 271.551 19.9716C271.172 20.0852 270.746 20.1847 270.273 20.2699C269.799 20.3551 269.33 20.4309 268.866 20.4972C268.402 20.5634 268 20.6203 267.659 20.6676C266.892 20.7718 266.205 20.9422 265.599 21.179C264.993 21.4157 264.515 21.7472 264.165 22.1733C263.814 22.59 263.639 23.1297 263.639 23.7926C263.639 24.7396 263.985 25.4545 264.676 25.9375C265.367 26.4205 266.248 26.6619 267.318 26.6619ZM282.673 38.1818V8.18182H287.73V11.7898H288.028C288.294 11.2595 288.668 10.696 289.151 10.0994C289.634 9.49337 290.287 8.97727 291.111 8.55114C291.935 8.11553 292.986 7.89773 294.264 7.89773C295.95 7.89773 297.47 8.3286 298.824 9.19034C300.188 10.0426 301.267 11.3068 302.062 12.983C302.867 14.6496 303.27 16.6951 303.27 19.1193C303.27 21.5152 302.877 23.5511 302.091 25.2273C301.305 26.9034 300.235 28.1818 298.881 29.0625C297.527 29.9432 295.992 30.3835 294.278 30.3835C293.028 30.3835 291.991 30.1752 291.168 29.7585C290.344 29.3419 289.681 28.84 289.179 28.2528C288.687 27.6562 288.303 27.0928 288.028 26.5625H287.815V38.1818H282.673ZM287.716 19.0909C287.716 20.5019 287.915 21.7377 288.312 22.7983C288.72 23.8589 289.302 24.6875 290.06 25.2841C290.827 25.8712 291.755 26.1648 292.844 26.1648C293.98 26.1648 294.932 25.8617 295.699 25.2557C296.466 24.6402 297.044 23.8021 297.432 22.7415C297.83 21.6714 298.028 20.4545 298.028 19.0909C298.028 17.7367 297.834 16.5341 297.446 15.483C297.058 14.4318 296.48 13.608 295.713 13.0114C294.946 12.4148 293.99 12.1165 292.844 12.1165C291.745 12.1165 290.812 12.4053 290.045 12.983C289.278 13.5606 288.696 14.3703 288.298 15.4119C287.91 16.4536 287.716 17.6799 287.716 19.0909ZM318.568 8.18182V12.1591H306.026V8.18182H318.568ZM309.122 2.95455H314.264V23.4375C314.264 24.1288 314.368 24.6591 314.577 25.0284C314.795 25.3883 315.079 25.6345 315.429 25.767C315.779 25.8996 316.168 25.9659 316.594 25.9659C316.916 25.9659 317.209 25.9422 317.474 25.8949C317.749 25.8475 317.957 25.8049 318.099 25.767L318.966 29.7869C318.691 29.8816 318.298 29.9858 317.787 30.0994C317.285 30.2131 316.67 30.2794 315.94 30.2983C314.652 30.3362 313.492 30.142 312.46 29.7159C311.428 29.2803 310.609 28.608 310.003 27.6989C309.406 26.7898 309.113 25.6534 309.122 24.2898V2.95455ZM332.293 30.4261C330.106 30.4261 328.217 29.9716 326.626 29.0625C325.044 28.1439 323.827 26.8466 322.975 25.1705C322.123 23.4848 321.697 21.5009 321.697 19.2188C321.697 16.9744 322.123 15.0047 322.975 13.3097C323.837 11.6051 325.04 10.2794 326.583 9.33239C328.127 8.37595 329.94 7.89773 332.023 7.89773C333.368 7.89773 334.637 8.11553 335.83 8.55114C337.033 8.97727 338.094 9.64015 339.012 10.5398C339.94 11.4394 340.669 12.5852 341.2 13.9773C341.73 15.3598 341.995 17.0076 341.995 18.9205V20.4972H324.112V17.0312H337.066C337.057 16.0464 336.844 15.1705 336.427 14.4034C336.01 13.6269 335.428 13.0161 334.68 12.571C333.941 12.1259 333.079 11.9034 332.094 11.9034C331.043 11.9034 330.12 12.1591 329.325 12.6705C328.529 13.1723 327.909 13.8352 327.464 14.6591C327.028 15.4735 326.806 16.3684 326.796 17.3438V20.3693C326.796 21.6383 327.028 22.7273 327.492 23.6364C327.956 24.536 328.605 25.2273 329.438 25.7102C330.272 26.1837 331.247 26.4205 332.364 26.4205C333.112 26.4205 333.79 26.3163 334.396 26.108C335.002 25.8902 335.527 25.5729 335.972 25.1562C336.417 24.7396 336.754 24.2235 336.981 23.608L341.782 24.1477C341.479 25.4167 340.901 26.5246 340.049 27.4716C339.206 28.4091 338.127 29.1383 336.81 29.6591C335.494 30.1705 333.988 30.4261 332.293 30.4261ZM346.345 30V8.18182H351.331V11.8182H351.558C351.956 10.5587 352.638 9.58807 353.604 8.90625C354.579 8.21496 355.692 7.86932 356.942 7.86932C357.226 7.86932 357.543 7.88352 357.893 7.91193C358.253 7.93087 358.552 7.96401 358.788 8.01136V12.7415C358.571 12.6657 358.225 12.5994 357.751 12.5426C357.287 12.4763 356.838 12.4432 356.402 12.4432C355.464 12.4432 354.622 12.6468 353.874 13.054C353.135 13.4517 352.553 14.0057 352.126 14.7159C351.7 15.4261 351.487 16.2453 351.487 17.1733V30H346.345ZM377.624 0.90909V30H372.354V0.90909H377.624ZM388.6 0.90909V30H383.33V0.90909H388.6ZM399.577 0.90909V30H394.307V0.90909H399.577Z" fill="#A8A8B3"/>
</svg>
